<svg width="387" height="336" viewBox="0 0 387 336" fill="none" xmlns="http://www.w3.org/2000/svg">
<g filter="url(#filter0_d)">
<path d="M19.7749 19L340.17 49.767L365.58 315H19.7749V19Z" fill="black"/>
<mask id="path-2-inside-1" fill="white">
<path d="M265.314 264.935H257.882L263.719 259.411C263.862 259.276 263.945 259.087 263.945 258.899C263.945 258.706 263.862 258.518 263.719 258.382L261.444 256.229C261.299 256.093 261.103 256.017 260.9 256.017C260.696 256.017 260.501 256.093 260.356 256.229L251.162 264.935H236.811L246.96 255.33H259.964C260.389 255.33 260.731 255.006 260.731 254.604V251.557C260.731 251.369 260.654 251.181 260.505 251.045C260.361 250.904 260.168 250.83 259.964 250.83H251.709L256.965 245.861C257.109 245.725 257.192 245.536 257.192 245.348C257.192 245.155 257.109 244.967 256.965 244.831L254.69 242.678C254.546 242.542 254.35 242.466 254.147 242.466C253.943 242.466 253.747 242.542 253.603 242.678L248.346 247.658V239.84C248.346 239.652 248.269 239.464 248.12 239.328C247.976 239.187 247.783 239.114 247.578 239.114H244.365C243.94 239.114 243.597 239.438 243.597 239.84V252.147L233.448 261.753V248.17L242.647 239.469C242.791 239.332 242.871 239.147 242.871 238.954C242.871 238.762 242.791 238.577 242.647 238.44L240.372 236.287C240.229 236.151 240.036 236.072 239.831 236.072C239.627 236.072 239.428 236.151 239.29 236.287L233.448 241.81V234.776C233.448 234.374 233.106 234.05 232.681 234.05H229.467C229.042 234.05 228.699 234.374 228.699 234.776V241.81L222.863 236.287C222.576 236.01 222.062 236.01 221.775 236.287L219.5 238.44C219.357 238.577 219.276 238.762 219.276 238.954C219.276 239.147 219.357 239.332 219.5 239.469L228.694 248.17V261.753L218.55 252.147V239.84C218.55 239.438 218.208 239.114 217.783 239.114H214.564C214.359 239.114 214.166 239.187 214.023 239.328C213.879 239.464 213.796 239.647 213.796 239.84V247.648L208.545 242.673C208.4 242.537 208.205 242.461 208.001 242.461C207.797 242.461 207.602 242.537 207.457 242.673L205.182 244.826C205.039 244.963 204.958 245.148 204.958 245.341C204.958 245.533 205.039 245.718 205.182 245.855L210.439 250.825H202.184C201.759 250.825 201.416 251.149 201.416 251.552V254.598C201.416 254.792 201.494 254.975 201.643 255.11C201.786 255.252 201.985 255.325 202.184 255.325H215.188L225.337 264.935H210.986L201.792 256.229C201.647 256.093 201.452 256.017 201.248 256.017C201.044 256.017 200.849 256.093 200.704 256.229L198.429 258.382C198.357 258.449 198.301 258.53 198.262 258.618C198.223 258.706 198.203 258.801 198.203 258.897C198.203 258.992 198.223 259.087 198.262 259.175C198.301 259.264 198.357 259.344 198.429 259.411L204.266 264.935H196.833C196.408 264.935 196.066 265.265 196.066 265.662V268.703C196.066 269.106 196.408 269.43 196.833 269.43H204.266L198.429 274.948C198.285 275.089 198.203 275.267 198.203 275.466C198.203 275.654 198.28 275.842 198.429 275.978L200.704 278.131C200.853 278.277 201.052 278.345 201.245 278.345C201.438 278.345 201.637 278.277 201.786 278.131L210.986 269.43H225.337L215.188 279.035H202.184C201.759 279.035 201.416 279.359 201.416 279.761V282.803C201.416 282.996 201.499 283.184 201.643 283.32C201.786 283.456 201.98 283.529 202.184 283.529H210.439L205.182 288.499C205.039 288.636 204.958 288.821 204.958 289.014C204.958 289.207 205.039 289.392 205.182 289.529L207.457 291.682C207.528 291.75 207.612 291.803 207.705 291.84C207.798 291.877 207.898 291.896 207.998 291.896C208.099 291.896 208.199 291.877 208.291 291.84C208.384 291.803 208.469 291.75 208.539 291.682L213.796 286.707V294.52C213.796 294.713 213.873 294.896 214.023 295.032C214.166 295.168 214.359 295.246 214.564 295.246L217.777 295.241C218.202 295.241 218.545 294.917 218.545 294.514V282.218L228.688 272.612V286.195L219.495 294.896C219.351 295.033 219.271 295.218 219.271 295.411C219.271 295.603 219.351 295.788 219.495 295.925L221.77 298.078C221.913 298.214 222.106 298.287 222.311 298.287C222.515 298.287 222.714 298.214 222.852 298.078L228.688 292.555V299.589C228.688 299.991 229.031 300.315 229.456 300.315H232.67C233.095 300.315 233.437 299.986 233.437 299.589V292.555L239.274 298.078C239.417 298.214 239.61 298.287 239.815 298.287C240.019 298.287 240.212 298.214 240.356 298.078L242.631 295.925C242.774 295.788 242.855 295.603 242.855 295.411C242.855 295.218 242.774 295.033 242.631 294.896L233.448 286.195V272.607L243.597 282.212V294.52C243.597 294.922 243.94 295.246 244.365 295.246H247.578C247.783 295.246 247.981 295.173 248.12 295.037C248.263 294.901 248.346 294.718 248.346 294.52V286.712L253.603 291.687C253.673 291.755 253.758 291.809 253.851 291.845C253.943 291.882 254.043 291.901 254.144 291.901C254.244 291.901 254.344 291.882 254.437 291.845C254.53 291.809 254.614 291.755 254.685 291.687L256.954 289.534C257.026 289.467 257.083 289.386 257.122 289.298C257.161 289.21 257.181 289.115 257.181 289.019C257.181 288.923 257.161 288.829 257.122 288.74C257.083 288.652 257.026 288.572 256.954 288.504L251.698 283.535H259.947C260.372 283.535 260.715 283.205 260.715 282.808V279.767C260.715 279.364 260.372 279.04 259.947 279.04H246.96L236.811 269.43H251.162L260.356 278.131C260.505 278.277 260.704 278.345 260.897 278.345C261.09 278.345 261.289 278.277 261.438 278.131L263.713 275.978C263.785 275.91 263.842 275.83 263.881 275.742C263.92 275.654 263.94 275.559 263.94 275.463C263.94 275.367 263.92 275.272 263.881 275.184C263.842 275.096 263.785 275.016 263.713 274.948L257.882 269.43H265.314C265.74 269.43 266.082 269.106 266.082 268.703V265.662C266.082 265.259 265.74 264.935 265.314 264.935Z"/>
</mask>
<path d="M265.314 264.935H257.882L263.719 259.411C263.862 259.276 263.945 259.087 263.945 258.899C263.945 258.706 263.862 258.518 263.719 258.382L261.444 256.229C261.299 256.093 261.103 256.017 260.9 256.017C260.696 256.017 260.501 256.093 260.356 256.229L251.162 264.935H236.811L246.96 255.33H259.964C260.389 255.33 260.731 255.006 260.731 254.604V251.557C260.731 251.369 260.654 251.181 260.505 251.045C260.361 250.904 260.168 250.83 259.964 250.83H251.709L256.965 245.861C257.109 245.725 257.192 245.536 257.192 245.348C257.192 245.155 257.109 244.967 256.965 244.831L254.69 242.678C254.546 242.542 254.35 242.466 254.147 242.466C253.943 242.466 253.747 242.542 253.603 242.678L248.346 247.658V239.84C248.346 239.652 248.269 239.464 248.12 239.328C247.976 239.187 247.783 239.114 247.578 239.114H244.365C243.94 239.114 243.597 239.438 243.597 239.84V252.147L233.448 261.753V248.17L242.647 239.469C242.791 239.332 242.871 239.147 242.871 238.954C242.871 238.762 242.791 238.577 242.647 238.44L240.372 236.287C240.229 236.151 240.036 236.072 239.831 236.072C239.627 236.072 239.428 236.151 239.29 236.287L233.448 241.81V234.776C233.448 234.374 233.106 234.05 232.681 234.05H229.467C229.042 234.05 228.699 234.374 228.699 234.776V241.81L222.863 236.287C222.576 236.01 222.062 236.01 221.775 236.287L219.5 238.44C219.357 238.577 219.276 238.762 219.276 238.954C219.276 239.147 219.357 239.332 219.5 239.469L228.694 248.17V261.753L218.55 252.147V239.84C218.55 239.438 218.208 239.114 217.783 239.114H214.564C214.359 239.114 214.166 239.187 214.023 239.328C213.879 239.464 213.796 239.647 213.796 239.84V247.648L208.545 242.673C208.4 242.537 208.205 242.461 208.001 242.461C207.797 242.461 207.602 242.537 207.457 242.673L205.182 244.826C205.039 244.963 204.958 245.148 204.958 245.341C204.958 245.533 205.039 245.718 205.182 245.855L210.439 250.825H202.184C201.759 250.825 201.416 251.149 201.416 251.552V254.598C201.416 254.792 201.494 254.975 201.643 255.11C201.786 255.252 201.985 255.325 202.184 255.325H215.188L225.337 264.935H210.986L201.792 256.229C201.647 256.093 201.452 256.017 201.248 256.017C201.044 256.017 200.849 256.093 200.704 256.229L198.429 258.382C198.357 258.449 198.301 258.53 198.262 258.618C198.223 258.706 198.203 258.801 198.203 258.897C198.203 258.992 198.223 259.087 198.262 259.175C198.301 259.264 198.357 259.344 198.429 259.411L204.266 264.935H196.833C196.408 264.935 196.066 265.265 196.066 265.662V268.703C196.066 269.106 196.408 269.43 196.833 269.43H204.266L198.429 274.948C198.285 275.089 198.203 275.267 198.203 275.466C198.203 275.654 198.28 275.842 198.429 275.978L200.704 278.131C200.853 278.277 201.052 278.345 201.245 278.345C201.438 278.345 201.637 278.277 201.786 278.131L210.986 269.43H225.337L215.188 279.035H202.184C201.759 279.035 201.416 279.359 201.416 279.761V282.803C201.416 282.996 201.499 283.184 201.643 283.32C201.786 283.456 201.98 283.529 202.184 283.529H210.439L205.182 288.499C205.039 288.636 204.958 288.821 204.958 289.014C204.958 289.207 205.039 289.392 205.182 289.529L207.457 291.682C207.528 291.75 207.612 291.803 207.705 291.84C207.798 291.877 207.898 291.896 207.998 291.896C208.099 291.896 208.199 291.877 208.291 291.84C208.384 291.803 208.469 291.75 208.539 291.682L213.796 286.707V294.52C213.796 294.713 213.873 294.896 214.023 295.032C214.166 295.168 214.359 295.246 214.564 295.246L217.777 295.241C218.202 295.241 218.545 294.917 218.545 294.514V282.218L228.688 272.612V286.195L219.495 294.896C219.351 295.033 219.271 295.218 219.271 295.411C219.271 295.603 219.351 295.788 219.495 295.925L221.77 298.078C221.913 298.214 222.106 298.287 222.311 298.287C222.515 298.287 222.714 298.214 222.852 298.078L228.688 292.555V299.589C228.688 299.991 229.031 300.315 229.456 300.315H232.67C233.095 300.315 233.437 299.986 233.437 299.589V292.555L239.274 298.078C239.417 298.214 239.61 298.287 239.815 298.287C240.019 298.287 240.212 298.214 240.356 298.078L242.631 295.925C242.774 295.788 242.855 295.603 242.855 295.411C242.855 295.218 242.774 295.033 242.631 294.896L233.448 286.195V272.607L243.597 282.212V294.52C243.597 294.922 243.94 295.246 244.365 295.246H247.578C247.783 295.246 247.981 295.173 248.12 295.037C248.263 294.901 248.346 294.718 248.346 294.52V286.712L253.603 291.687C253.673 291.755 253.758 291.809 253.851 291.845C253.943 291.882 254.043 291.901 254.144 291.901C254.244 291.901 254.344 291.882 254.437 291.845C254.53 291.809 254.614 291.755 254.685 291.687L256.954 289.534C257.026 289.467 257.083 289.386 257.122 289.298C257.161 289.21 257.181 289.115 257.181 289.019C257.181 288.923 257.161 288.829 257.122 288.74C257.083 288.652 257.026 288.572 256.954 288.504L251.698 283.535H259.947C260.372 283.535 260.715 283.205 260.715 282.808V279.767C260.715 279.364 260.372 279.04 259.947 279.04H246.96L236.811 269.43H251.162L260.356 278.131C260.505 278.277 260.704 278.345 260.897 278.345C261.09 278.345 261.289 278.277 261.438 278.131L263.713 275.978C263.785 275.91 263.842 275.83 263.881 275.742C263.92 275.654 263.94 275.559 263.94 275.463C263.94 275.367 263.92 275.272 263.881 275.184C263.842 275.096 263.785 275.016 263.713 274.948L257.882 269.43H265.314C265.74 269.43 266.082 269.106 266.082 268.703V265.662C266.082 265.259 265.74 264.935 265.314 264.935Z" fill="url(#paint0_linear)" stroke="#FFFEFE" stroke-width="2.20962" mask="url(#path-2-inside-1)"/>
<path d="M51.1868 105.543V46.6787H36.1526V105.543H51.1868ZM111.502 105.543V46.6787H97.1043L97.7407 83.9064L74.8314 46.6787H61.8653V105.543H76.2632L75.8655 69.588L98.4566 105.543H111.502ZM58.2665 200.543V154.883H69.8007V141.679H31.6185V154.883H43.2322V200.543H58.2665ZM125.167 200.543V141.679H110.133V163.793H90.8823V141.679H75.8481V200.543H90.8823V176.997H110.133V200.543H125.167ZM168.512 200.543V187.338H150.216V177.236H167.955V164.031H150.216V154.883H168.512V141.679H135.819V200.543H168.512ZM74.0962 253.861C74.0166 245.986 70.9939 241.292 64.7097 238.031C61.6074 236.44 58.1869 235.565 54.2892 235.565C43.4709 235.565 33.7662 242.883 33.7662 252.906C33.7662 260.543 38.1413 265.634 47.7664 269.531C53.096 271.679 59.6188 273.747 59.6188 278.441C59.6188 281.622 57.0733 284.088 53.971 284.088C50.2323 284.088 47.8459 280.906 47.7664 276.054H32.8117V277.327C32.8117 289.975 41.2436 296.657 54.0505 296.657C66.7779 296.657 74.5735 289.975 74.5735 278.6C74.5735 270.884 71.3121 266.19 58.346 260.622C51.9028 257.838 48.7209 256.247 48.7209 252.747C48.7209 250.122 51.1073 248.133 53.8914 248.133C56.8346 248.133 58.5847 249.645 59.221 253.861H74.0962ZM132.184 295.543L111.423 266.031L130.911 236.679H115.161L98.5362 263.168H98.3771V236.679H83.3428V295.543H98.3771V270.088H98.5362L114.605 295.543H132.184ZM187.63 295.543V236.679H173.233L173.869 273.906L150.96 236.679H137.994V295.543H152.391L151.994 259.588L174.585 295.543H187.63ZM325.737 295.543L341.328 236.679H326.135L318.101 275.1H317.942L309.43 236.679H297.896L289.225 274.94H289.066L281.191 236.679H265.918L281.112 295.543H294.714L303.544 257.44H303.703L312.532 295.543H325.737Z" fill="url(#paint1_linear)"/>
<path d="M51.1868 105.543V106.648H52.2917V105.543H51.1868ZM51.1868 46.6787H52.2917V45.5739H51.1868V46.6787ZM36.1526 46.6787V45.5739H35.0478V46.6787H36.1526ZM36.1526 105.543H35.0478V106.648H36.1526V105.543ZM52.2917 105.543V46.6787H50.082V105.543H52.2917ZM51.1868 45.5739H36.1526V47.7835H51.1868V45.5739ZM35.0478 46.6787V105.543H37.2574V46.6787H35.0478ZM36.1526 106.648H51.1868V104.438H36.1526V106.648ZM111.502 105.543V106.648H112.607V105.543H111.502ZM111.502 46.6787H112.607V45.5739H111.502V46.6787ZM97.1043 46.6787V45.5739H95.9805L95.9997 46.6976L97.1043 46.6787ZM97.7407 83.9064L96.7998 84.4854L98.9143 87.9215L98.8453 83.8875L97.7407 83.9064ZM74.8314 46.6787L75.7723 46.0997L75.4487 45.5739H74.8314V46.6787ZM61.8653 46.6787V45.5739H60.7605V46.6787H61.8653ZM61.8653 105.543H60.7605V106.648H61.8653V105.543ZM76.2632 105.543V106.648H77.3803L77.3679 105.531L76.2632 105.543ZM75.8655 69.588L76.8009 69.0003L74.7174 65.6842L74.7607 69.6003L75.8655 69.588ZM98.4566 105.543L97.5211 106.131L97.846 106.648H98.4566V105.543ZM112.607 105.543V46.6787H110.397V105.543H112.607ZM111.502 45.5739H97.1043V47.7835H111.502V45.5739ZM95.9997 46.6976L96.636 83.9253L98.8453 83.8875L98.209 46.6598L95.9997 46.6976ZM98.6816 83.3274L75.7723 46.0997L73.8904 47.2577L96.7998 84.4854L98.6816 83.3274ZM74.8314 45.5739H61.8653V47.7835H74.8314V45.5739ZM60.7605 46.6787V105.543H62.9701V46.6787H60.7605ZM61.8653 106.648H76.2632V104.438H61.8653V106.648ZM77.3679 105.531L76.9702 69.5758L74.7607 69.6003L75.1585 105.555L77.3679 105.531ZM74.93 70.1758L97.5211 106.131L99.3921 104.955L76.8009 69.0003L74.93 70.1758ZM98.4566 106.648H111.502V104.438H98.4566V106.648ZM58.2665 200.543V201.648H59.3713V200.543H58.2665ZM58.2665 154.883V153.779H57.1617V154.883H58.2665ZM69.8007 154.883V155.988H70.9055V154.883H69.8007ZM69.8007 141.679H70.9055V140.574H69.8007V141.679ZM31.6185 141.679V140.574H30.5137V141.679H31.6185ZM31.6185 154.883H30.5137V155.988H31.6185V154.883ZM43.2322 154.883H44.337V153.779H43.2322V154.883ZM43.2322 200.543H42.1274V201.648H43.2322V200.543ZM59.3713 200.543V154.883H57.1617V200.543H59.3713ZM58.2665 155.988H69.8007V153.779H58.2665V155.988ZM70.9055 154.883V141.679H68.6959V154.883H70.9055ZM69.8007 140.574H31.6185V142.784H69.8007V140.574ZM30.5137 141.679V154.883H32.7233V141.679H30.5137ZM31.6185 155.988H43.2322V153.779H31.6185V155.988ZM42.1274 154.883V200.543H44.337V154.883H42.1274ZM43.2322 201.648H58.2665V199.438H43.2322V201.648ZM125.167 200.543V201.648H126.272V200.543H125.167ZM125.167 141.679H126.272V140.574H125.167V141.679ZM110.133 141.679V140.574H109.028V141.679H110.133ZM110.133 163.793V164.897H111.237V163.793H110.133ZM90.8823 163.793H89.7775V164.897H90.8823V163.793ZM90.8823 141.679H91.9871V140.574H90.8823V141.679ZM75.8481 141.679V140.574H74.7433V141.679H75.8481ZM75.8481 200.543H74.7433V201.648H75.8481V200.543ZM90.8823 200.543V201.648H91.9871V200.543H90.8823ZM90.8823 176.997V175.892H89.7775V176.997H90.8823ZM110.133 176.997H111.237V175.892H110.133V176.997ZM110.133 200.543H109.028V201.648H110.133V200.543ZM126.272 200.543V141.679H124.062V200.543H126.272ZM125.167 140.574H110.133V142.784H125.167V140.574ZM109.028 141.679V163.793H111.237V141.679H109.028ZM110.133 162.688H90.8823V164.897H110.133V162.688ZM91.9871 163.793V141.679H89.7775V163.793H91.9871ZM90.8823 140.574H75.8481V142.784H90.8823V140.574ZM74.7433 141.679V200.543H76.9529V141.679H74.7433ZM75.8481 201.648H90.8823V199.438H75.8481V201.648ZM91.9871 200.543V176.997H89.7775V200.543H91.9871ZM90.8823 178.102H110.133V175.892H90.8823V178.102ZM109.028 176.997V200.543H111.237V176.997H109.028ZM110.133 201.648H125.167V199.438H110.133V201.648ZM168.512 200.543V201.648H169.617V200.543H168.512ZM168.512 187.338H169.617V186.233H168.512V187.338ZM150.216 187.338H149.112V188.443H150.216V187.338ZM150.216 177.236V176.131H149.112V177.236H150.216ZM167.955 177.236V178.341H169.06V177.236H167.955ZM167.955 164.031H169.06V162.926H167.955V164.031ZM150.216 164.031H149.112V165.136H150.216V164.031ZM150.216 154.883V153.779H149.112V154.883H150.216ZM168.512 154.883V155.988H169.617V154.883H168.512ZM168.512 141.679H169.617V140.574H168.512V141.679ZM135.819 141.679V140.574H134.714V141.679H135.819ZM135.819 200.543H134.714V201.648H135.819V200.543ZM169.617 200.543V187.338H167.407V200.543H169.617ZM168.512 186.233H150.216V188.443H168.512V186.233ZM151.321 187.338V177.236H149.112V187.338H151.321ZM150.216 178.341H167.955V176.131H150.216V178.341ZM169.06 177.236V164.031H166.85V177.236H169.06ZM167.955 162.926H150.216V165.136H167.955V162.926ZM151.321 164.031V154.883H149.112V164.031H151.321ZM150.216 155.988H168.512V153.779H150.216V155.988ZM169.617 154.883V141.679H167.407V154.883H169.617ZM168.512 140.574H135.819V142.784H168.512V140.574ZM134.714 141.679V200.543H136.923V141.679H134.714ZM135.819 201.648H168.512V199.438H135.819V201.648ZM74.0962 253.861V254.966H75.2122L75.2009 253.85L74.0962 253.861ZM64.7097 238.031L65.2187 237.05L65.2139 237.048L64.7097 238.031ZM47.7664 269.531L47.3517 270.555L47.3534 270.556L47.7664 269.531ZM47.7664 276.054L48.871 276.036L48.8532 274.949H47.7664V276.054ZM32.8117 276.054V274.949H31.7068V276.054H32.8117ZM58.346 260.622L57.9078 261.636L57.9101 261.637L58.346 260.622ZM59.221 253.861L58.1286 254.026L58.2705 254.966H59.221V253.861ZM75.2009 253.85C75.1598 249.773 74.3551 246.423 72.6751 243.644C70.9933 240.863 68.4916 238.749 65.2186 237.05L64.2008 239.012C67.212 240.574 69.3637 242.438 70.7843 244.787C72.2065 247.14 72.9531 250.073 72.9914 253.872L75.2009 253.85ZM65.2139 237.048C61.9554 235.377 58.3621 234.46 54.2892 234.46V236.67C58.0117 236.67 61.2594 237.503 64.2056 239.014L65.2139 237.048ZM54.2892 234.46C43.0816 234.46 32.6614 242.074 32.6614 252.906H34.871C34.871 243.693 43.8601 236.67 54.2892 236.67V234.46ZM32.6614 252.906C32.6614 256.959 33.8315 260.401 36.3135 263.334C38.7708 266.238 42.4522 268.571 47.3517 270.555L48.181 268.507C43.4554 266.594 40.1368 264.432 38.0003 261.907C35.8885 259.411 34.871 256.49 34.871 252.906H32.6614ZM47.3534 270.556C50.0904 271.659 52.9247 272.666 55.1245 273.98C57.3302 275.298 58.5139 276.7 58.5139 278.441H60.7236C60.7236 275.488 58.6459 273.51 56.2578 272.083C53.8638 270.653 50.7719 269.551 48.1793 268.507L47.3534 270.556ZM58.5139 278.441C58.5139 281.002 56.4733 282.983 53.971 282.983V285.193C57.6733 285.193 60.7236 282.243 60.7236 278.441H58.5139ZM53.971 282.983C52.4516 282.983 51.2421 282.353 50.3736 281.219C49.4826 280.056 48.9081 278.299 48.871 276.036L46.6617 276.072C46.7041 278.662 47.3626 280.922 48.6194 282.563C49.8986 284.233 51.7517 285.193 53.971 285.193V282.983ZM47.7664 274.949H32.8117V277.159H47.7664V274.949ZM31.7068 276.054V277.327H33.9165V276.054H31.7068ZM31.7068 277.327C31.7068 283.911 33.9113 289.069 37.9002 292.565C41.8678 296.044 47.4666 297.761 54.0505 297.761V295.552C47.8275 295.552 42.8069 293.929 39.3568 290.904C35.9279 287.898 33.9165 283.391 33.9165 277.327H31.7068ZM54.0505 297.761C60.5973 297.761 66.015 296.043 69.8116 292.726C73.6278 289.392 75.6783 284.555 75.6783 278.6H73.4686C73.4686 284.02 71.6214 288.211 68.3579 291.062C65.0749 293.93 60.2311 295.552 54.0505 295.552V297.761ZM75.6783 278.6C75.6783 274.56 74.8155 271.175 72.1598 268.085C69.5553 265.056 65.3074 262.409 58.782 259.607L57.9101 261.637C64.3507 264.403 68.2165 266.888 70.4842 269.526C72.7007 272.104 73.4686 274.923 73.4686 278.6H75.6783ZM58.7842 259.608C55.5306 258.202 53.2525 257.157 51.7739 256.065C50.3701 255.027 49.8257 254.053 49.8257 252.747H47.6161C47.6161 254.941 48.6627 256.513 50.4606 257.842C52.1837 259.115 54.7182 260.258 57.9078 261.636L58.7842 259.608ZM49.8257 252.747C49.8257 250.868 51.5726 249.238 53.8914 249.238V247.029C50.642 247.029 47.6161 249.376 47.6161 252.747H49.8257ZM53.8914 249.238C55.1663 249.238 56.0155 249.559 56.6314 250.189C57.2827 250.854 57.8257 252.019 58.1286 254.026L60.3135 253.696C59.9799 251.486 59.3298 249.787 58.2111 248.644C57.0572 247.464 55.5597 247.029 53.8914 247.029V249.238ZM59.221 254.966H74.0962V252.756H59.221V254.966ZM132.184 295.543V296.648H134.312L133.088 294.907L132.184 295.543ZM111.423 266.031L110.502 265.42L110.085 266.049L110.519 266.667L111.423 266.031ZM130.911 236.679L131.832 237.29L132.971 235.574H130.911V236.679ZM115.161 236.679V235.574H114.55L114.226 236.091L115.161 236.679ZM98.5362 263.168V264.272H99.1471L99.4719 263.755L98.5362 263.168ZM98.3771 263.168H97.2723V264.272H98.3771V263.168ZM98.3771 236.679H99.4819V235.574H98.3771V236.679ZM83.3428 236.679V235.574H82.238V236.679H83.3428ZM83.3428 295.543H82.238V296.648H83.3428V295.543ZM98.3771 295.543V296.648H99.4819V295.543H98.3771ZM98.3771 270.088V268.983H97.2723V270.088H98.3771ZM98.5362 270.088L99.4704 269.498L99.1453 268.983H98.5362V270.088ZM114.605 295.543L113.67 296.133L113.995 296.648H114.605V295.543ZM133.088 294.907L112.326 265.396L110.519 266.667L131.281 296.179L133.088 294.907ZM112.343 266.642L131.832 237.29L129.991 236.068L110.502 265.42L112.343 266.642ZM130.911 235.574H115.161V237.784H130.911V235.574ZM114.226 236.091L97.6004 262.58L99.4719 263.755L116.097 237.266L114.226 236.091ZM98.5362 262.063H98.3771V264.272H98.5362V262.063ZM99.4819 263.168V236.679H97.2723V263.168H99.4819ZM98.3771 235.574H83.3428V237.784H98.3771V235.574ZM82.238 236.679V295.543H84.4476V236.679H82.238ZM83.3428 296.648H98.3771V294.438H83.3428V296.648ZM99.4819 295.543V270.088H97.2723V295.543H99.4819ZM98.3771 271.193H98.5362V268.983H98.3771V271.193ZM97.6019 270.678L113.67 296.133L115.539 294.953L99.4704 269.498L97.6019 270.678ZM114.605 296.648H132.184V294.438H114.605V296.648ZM187.63 295.543V296.648H188.735V295.543H187.63ZM187.63 236.679H188.735V235.574H187.63V236.679ZM173.233 236.679V235.574H172.109L172.128 236.698L173.233 236.679ZM173.869 273.906L172.928 274.485L175.043 277.922L174.974 273.887L173.869 273.906ZM150.96 236.679L151.901 236.1L151.577 235.574H150.96V236.679ZM137.994 236.679V235.574H136.889V236.679H137.994ZM137.994 295.543H136.889V296.648H137.994V295.543ZM152.391 295.543V296.648H153.509L153.496 295.531L152.391 295.543ZM151.994 259.588L152.929 259L150.846 255.684L150.889 259.6L151.994 259.588ZM174.585 295.543L173.649 296.131L173.974 296.648H174.585V295.543ZM188.735 295.543V236.679H186.526V295.543H188.735ZM187.63 235.574H173.233V237.784H187.63V235.574ZM172.128 236.698L172.764 273.925L174.974 273.887L174.337 236.66L172.128 236.698ZM174.81 273.327L151.901 236.1L150.019 237.258L172.928 274.485L174.81 273.327ZM150.96 235.574H137.994V237.784H150.96V235.574ZM136.889 236.679V295.543H139.098V236.679H136.889ZM137.994 296.648H152.391V294.438H137.994V296.648ZM153.496 295.531L153.098 259.576L150.889 259.6L151.287 295.555L153.496 295.531ZM151.058 260.176L173.649 296.131L175.52 294.955L152.929 259L151.058 260.176ZM174.585 296.648H187.63V294.438H174.585V296.648ZM325.737 295.543V296.648H326.587L326.805 295.826L325.737 295.543ZM341.328 236.679L342.396 236.962L342.764 235.574H341.328V236.679ZM326.135 236.679V235.574H325.237L325.053 236.453L326.135 236.679ZM318.101 275.1V276.204H318.998L319.182 275.326L318.101 275.1ZM317.942 275.1L316.863 275.339L317.055 276.204H317.942V275.1ZM309.43 236.679L310.509 236.44L310.317 235.574H309.43V236.679ZM297.896 236.679V235.574H297.013L296.818 236.435L297.896 236.679ZM289.225 274.94V276.045H290.108L290.303 275.185L289.225 274.94ZM289.066 274.94L287.984 275.163L288.166 276.045H289.066V274.94ZM281.191 236.679L282.273 236.456L282.092 235.574H281.191V236.679ZM265.918 236.679V235.574H264.492L264.849 236.955L265.918 236.679ZM281.112 295.543L280.042 295.819L280.256 296.648H281.112V295.543ZM294.714 295.543V296.648H295.592L295.79 295.792L294.714 295.543ZM303.544 257.44V256.335H302.666L302.467 257.191L303.544 257.44ZM303.703 257.44L304.779 257.191L304.581 256.335H303.703V257.44ZM312.532 295.543L311.456 295.792L311.654 296.648H312.532V295.543ZM326.805 295.826L342.396 236.962L340.26 236.396L324.669 295.26L326.805 295.826ZM341.328 235.574H326.135V237.784H341.328V235.574ZM325.053 236.453L317.019 274.873L319.182 275.326L327.216 236.905L325.053 236.453ZM318.101 273.995H317.942V276.204H318.101V273.995ZM319.02 274.861L310.509 236.44L308.352 236.918L316.863 275.339L319.02 274.861ZM309.43 235.574H297.896V237.784H309.43V235.574ZM296.818 236.435L288.148 274.696L290.303 275.185L298.973 236.923L296.818 236.435ZM289.225 273.836H289.066V276.045H289.225V273.836ZM290.148 274.718L282.273 236.456L280.109 236.901L287.984 275.163L290.148 274.718ZM281.191 235.574H265.918V237.784H281.191V235.574ZM264.849 236.955L280.042 295.819L282.181 295.267L266.988 236.403L264.849 236.955ZM281.112 296.648H294.714V294.438H281.112V296.648ZM295.79 295.792L304.62 257.69L302.467 257.191L293.638 295.294L295.79 295.792ZM303.544 258.545H303.703V256.335H303.544V258.545ZM302.627 257.69L311.456 295.792L313.609 295.294L304.779 257.191L302.627 257.69ZM312.532 296.648H325.737V294.438H312.532V296.648Z" fill="#FFFEFE"/>
<line y1="-1.10481" x2="61.7324" y2="-1.10481" transform="matrix(0.680077 -0.73314 0.779321 0.626625 119.368 112.364)" stroke="#9EE0F6" stroke-width="2.20962"/>
<line y1="-1.10481" x2="140.414" y2="-1.10481" transform="matrix(0.527172 0.849759 -0.880734 0.473611 159.141 67.1055)" stroke="#9EE0F6" stroke-width="2.20962"/>
<line y1="-1.10481" x2="85.043" y2="-1.10481" transform="matrix(0.805454 -0.592659 0.647151 0.762362 214.381 153.509)" stroke="#9EE0F6" stroke-width="2.20962"/>
<line y1="-1.10481" x2="115.132" y2="-1.10481" transform="matrix(0.498992 0.866607 -0.894747 0.446572 280.67 102.078)" stroke="#9EE0F6" stroke-width="2.20962"/>
</g>
<defs>
<filter id="filter0_d" x="0.774902" y="0" width="385.805" height="336" filterUnits="userSpaceOnUse" color-interpolation-filters="sRGB">
<feFlood flood-opacity="0" result="BackgroundImageFix"/>
<feColorMatrix in="SourceAlpha" type="matrix" values="0 0 0 0 0 0 0 0 0 0 0 0 0 0 0 0 0 0 127 0"/>
<feOffset dx="1" dy="1"/>
<feGaussianBlur stdDeviation="10"/>
<feColorMatrix type="matrix" values="0 0 0 0 0.0181076 0 0 0 0 0.400607 0 0 0 0 0.620833 0 0 0 1 0"/>
<feBlend mode="normal" in2="BackgroundImageFix" result="effect1_dropShadow"/>
<feBlend mode="normal" in="SourceGraphic" in2="effect1_dropShadow" result="shape"/>
</filter>
<linearGradient id="paint0_linear" x1="231.074" y1="234.05" x2="231.074" y2="300.315" gradientUnits="userSpaceOnUse">
<stop stop-color="#A4E1F6"/>
<stop offset="1" stop-color="#FDFEFF"/>
</linearGradient>
<linearGradient id="paint1_linear" x1="198.202" y1="38.543" x2="198.202" y2="305.98" gradientUnits="userSpaceOnUse">
<stop stop-color="#99DEF5"/>
<stop offset="1" stop-color="#FFFEFE"/>
</linearGradient>
</defs>
</svg>
