<svg width="240" height="61" viewBox="0 0 240 61" fill="none" xmlns="http://www.w3.org/2000/svg">
<g clip-path="url(#clip0)">
<path d="M64.6624 28.2096H57.8346L63.1964 23.289C63.3283 23.168 63.4044 23.0004 63.4044 22.8328C63.4044 22.6606 63.3283 22.493 63.1964 22.372L61.1065 20.454C60.9735 20.3332 60.7939 20.2654 60.6068 20.2654C60.4197 20.2654 60.2401 20.3332 60.1071 20.454L51.6611 28.2096H38.4772L47.8008 19.6533H59.747C60.1376 19.6533 60.4521 19.3647 60.4521 19.0062V16.2923C60.4521 16.1247 60.3811 15.9571 60.2441 15.836C60.1122 15.7104 59.9347 15.6452 59.747 15.6452H52.1633L56.9925 11.2181C57.1244 11.0971 57.2005 10.9295 57.2005 10.7619C57.2005 10.5896 57.1244 10.422 56.9925 10.301L54.9026 8.38307C54.7696 8.26225 54.59 8.19447 54.4029 8.19447C54.2158 8.19447 54.0362 8.26225 53.9032 8.38307L49.074 12.8195V5.85529C49.074 5.6877 49.003 5.52012 48.8661 5.39908C48.7342 5.27339 48.5566 5.20822 48.3689 5.20822H45.4166C45.026 5.20822 44.7115 5.49684 44.7115 5.85529V16.8183L35.3879 25.3746V13.2757L43.839 5.52477C43.9707 5.40274 44.0445 5.23796 44.0445 5.06623C44.0445 4.89451 43.9707 4.72973 43.839 4.6077L41.7491 2.68975C41.6172 2.56872 41.4396 2.49889 41.252 2.49889C41.0643 2.49889 40.8816 2.56872 40.7548 2.68975L35.3879 7.6103V1.3444C35.3879 0.985949 35.0734 0.697327 34.6828 0.697327H31.7305C31.3399 0.697327 31.0254 0.985949 31.0254 1.3444V7.6103L25.6636 2.68975C25.3998 2.44303 24.928 2.44303 24.6643 2.68975L22.5743 4.6077C22.4427 4.72973 22.3688 4.89451 22.3688 5.06623C22.3688 5.23796 22.4427 5.40274 22.5743 5.52477L31.0203 13.2757V25.3746L21.7018 16.8183V5.85529C21.7018 5.49684 21.3873 5.20822 20.9967 5.20822H18.0393C17.8516 5.20822 17.6741 5.27339 17.5422 5.39908C17.4103 5.52012 17.3342 5.68305 17.3342 5.85529V12.8102L12.5101 8.37841C12.3771 8.25759 12.1976 8.18982 12.0104 8.18982C11.8233 8.18982 11.6437 8.25759 11.5108 8.37841L9.42082 10.2964C9.28916 10.4184 9.21531 10.5832 9.21531 10.7549C9.21531 10.9266 9.28916 11.0914 9.42082 11.2134L14.25 15.6405H6.66635C6.27575 15.6405 5.96124 15.9292 5.96124 16.2876V19.0016C5.96124 19.1738 6.03226 19.3368 6.16922 19.4578C6.30111 19.5835 6.48373 19.6487 6.66635 19.6487H18.6125L27.9361 28.2096H14.7522L6.30619 20.454C6.17321 20.3332 5.99365 20.2654 5.80653 20.2654C5.6194 20.2654 5.43984 20.3332 5.30687 20.454L3.21692 22.372C3.15118 22.4321 3.09902 22.5036 3.06344 22.5823C3.02785 22.6609 3.00953 22.7453 3.00953 22.8305C3.00953 22.9157 3.02785 23 3.06344 23.0787C3.09902 23.1574 3.15118 23.2289 3.21692 23.289L8.57875 28.2096H1.75091C1.36031 28.2096 1.04581 28.5029 1.04581 28.8567V31.566C1.04581 31.9244 1.36031 32.2131 1.75091 32.2131H8.57875L3.21692 37.129C3.08503 37.2546 3.00894 37.4129 3.00894 37.5898C3.00894 37.7574 3.07996 37.925 3.21692 38.046L5.30687 39.964C5.44383 40.0943 5.62645 40.1548 5.80399 40.1548C5.98153 40.1548 6.16415 40.0943 6.30111 39.964L14.7522 32.2131H27.9361L18.6125 40.7693H6.66635C6.27575 40.7693 5.96124 41.0579 5.96124 41.4164V44.1257C5.96124 44.298 6.03733 44.4655 6.16922 44.5866C6.30111 44.7076 6.47866 44.7728 6.66635 44.7728H14.25L9.42082 49.1999C9.28916 49.3219 9.21531 49.4867 9.21531 49.6584C9.21531 49.8302 9.28916 49.9949 9.42082 50.117L11.5108 52.0349C11.5758 52.0953 11.6532 52.1432 11.7385 52.1759C11.8239 52.2086 11.9154 52.2254 12.0079 52.2254C12.1004 52.2254 12.1919 52.2086 12.2773 52.1759C12.3626 52.1432 12.44 52.0953 12.505 52.0349L17.3342 47.6032V54.5627C17.3342 54.7349 17.4052 54.8979 17.5422 55.0189C17.6741 55.1399 17.8516 55.2098 18.0393 55.2098L20.9916 55.2051C21.3822 55.2051 21.6967 54.9165 21.6967 54.558V43.6043L31.0153 35.0481V47.1469L22.5692 54.8979C22.4376 55.0199 22.3637 55.1847 22.3637 55.3564C22.3637 55.5281 22.4376 55.6929 22.5692 55.8149L24.6592 57.7329C24.7911 57.8539 24.9686 57.9191 25.1563 57.9191C25.344 57.9191 25.5266 57.8539 25.6534 57.7329L31.0153 52.8123V59.0782C31.0153 59.4367 31.3298 59.7253 31.7204 59.7253H34.6727C35.0633 59.7253 35.3778 59.432 35.3778 59.0782V52.8123L40.7396 57.7329C40.8715 57.8539 41.049 57.9191 41.2367 57.9191C41.4244 57.9191 41.602 57.8539 41.7339 57.7329L43.8238 55.8149C43.9555 55.6929 44.0293 55.5281 44.0293 55.3564C44.0293 55.1847 43.9555 55.0199 43.8238 54.8979L35.3879 47.1469V35.0434L44.7115 43.5997V54.5627C44.7115 54.9211 45.026 55.2098 45.4166 55.2098H48.3689C48.5566 55.2098 48.7392 55.1446 48.8661 55.0236C48.9979 54.9025 49.074 54.7396 49.074 54.5627V47.6078L53.9032 52.0396C53.9683 52.0999 54.0457 52.1478 54.131 52.1805C54.2163 52.2132 54.3079 52.2301 54.4004 52.2301C54.4928 52.2301 54.5844 52.2132 54.6697 52.1805C54.7551 52.1478 54.8325 52.0999 54.8975 52.0396L56.9824 50.1216C57.0485 50.0617 57.1009 49.9903 57.1368 49.9115C57.1726 49.8328 57.191 49.7484 57.191 49.6631C57.191 49.5778 57.1726 49.4933 57.1368 49.4146C57.1009 49.3359 57.0485 49.2645 56.9824 49.2045L52.1532 44.7774H59.7318C60.1224 44.7774 60.4369 44.4842 60.4369 44.1304V41.421C60.4369 41.0626 60.1224 40.774 59.7318 40.774H47.8008L38.4772 32.2131H51.6611L60.1071 39.964C60.2441 40.0943 60.4267 40.1548 60.6043 40.1548C60.7818 40.1548 60.9644 40.0943 61.1014 39.964L63.1913 38.046C63.2574 37.9861 63.3099 37.9147 63.3457 37.8359C63.3816 37.7572 63.4 37.6728 63.4 37.5875C63.4 37.5022 63.3816 37.4177 63.3457 37.339C63.3099 37.2603 63.2574 37.1889 63.1913 37.129L57.8346 32.2131H64.6624C65.053 32.2131 65.3675 31.9244 65.3675 31.566V28.8567C65.3675 28.4982 65.053 28.2096 64.6624 28.2096V28.2096Z" fill="#A6E2F6" fill-opacity="0.6"/>
</g>
<path d="M35.9541 42.1808V21.0864H30.5665V42.1808H35.9541ZM57.5685 42.1808V21.0864H52.4089L52.637 34.4272L44.4273 21.0864H39.7808V42.1808H44.9404L44.7978 29.2961L52.8935 42.1808H57.5685ZM77.4085 42.1808V25.8184H81.5418V21.0864H67.859V25.8184H72.0208V42.1808H77.4085ZM101.383 42.1808V21.0864H95.995V29.0111H89.0966V21.0864H83.709V42.1808H89.0966V33.7431H95.995V42.1808H101.383ZM116.916 42.1808V37.4489H110.359V33.8286H116.716V29.0966H110.359V25.8184H116.916V21.0864H105.2V42.1808H116.916ZM142.654 27.2437C142.626 24.4216 141.542 22.7398 139.291 21.571C138.179 21.0009 136.953 20.6873 135.556 20.6873C131.679 20.6873 128.202 23.3099 128.202 26.9016C128.202 29.6382 129.77 31.4626 133.219 32.8594C135.129 33.6291 137.466 34.3702 137.466 36.0521C137.466 37.1923 136.554 38.076 135.442 38.076C134.102 38.076 133.247 36.9357 133.219 35.1969H127.86V35.653C127.86 40.1854 130.881 42.5799 135.471 42.5799C140.032 42.5799 142.825 40.1854 142.825 36.1091C142.825 33.344 141.657 31.6621 137.01 29.6667C134.701 28.669 133.561 28.0989 133.561 26.8446C133.561 25.9039 134.416 25.1913 135.414 25.1913C136.468 25.1913 137.096 25.7329 137.324 27.2437H142.654ZM163.47 42.1808L156.03 31.6051L163.014 21.0864H157.37L151.412 30.5789H151.355V21.0864H145.968V42.1808H151.355V33.0589H151.412L157.171 42.1808H163.47ZM183.34 42.1808V21.0864H178.18L178.409 34.4272L170.199 21.0864H165.552V42.1808H170.712L170.569 29.2961L178.665 42.1808H183.34ZM232.832 42.1808L238.419 21.0864H232.974L230.095 34.8548H230.038L226.988 21.0864H222.854L219.747 34.7978H219.69L216.868 21.0864H211.395L216.84 42.1808H221.714L224.878 28.5265H224.935L228.1 42.1808H232.832Z" fill="white" fill-opacity="0.93"/>
<path d="M35.9541 42.1808V42.5768H36.35V42.1808H35.9541ZM35.9541 21.0864H36.35V20.6905H35.9541V21.0864ZM30.5665 21.0864V20.6905H30.1705V21.0864H30.5665ZM30.5665 42.1808H30.1705V42.5768H30.5665V42.1808ZM36.35 42.1808V21.0864H35.5582V42.1808H36.35ZM35.9541 20.6905H30.5665V21.4823H35.9541V20.6905ZM30.1705 21.0864V42.1808H30.9624V21.0864H30.1705ZM30.5665 42.5768H35.9541V41.7849H30.5665V42.5768ZM57.5685 42.1808V42.5768H57.9644V42.1808H57.5685ZM57.5685 21.0864H57.9644V20.6905H57.5685V21.0864ZM52.4089 21.0864V20.6905H52.0062L52.0131 21.0932L52.4089 21.0864ZM52.637 34.4272L52.2998 34.6347L53.0576 35.8661L53.0328 34.4205L52.637 34.4272ZM44.4273 21.0864L44.7645 20.8789L44.6485 20.6905H44.4273V21.0864ZM39.7808 21.0864V20.6905H39.3849V21.0864H39.7808ZM39.7808 42.1808H39.3849V42.5768H39.7808V42.1808ZM44.9404 42.1808V42.5768H45.3407L45.3363 42.1765L44.9404 42.1808ZM44.7978 29.2961L45.1331 29.0855L44.3864 27.8972L44.402 29.3005L44.7978 29.2961ZM52.8935 42.1808L52.5583 42.3915L52.6747 42.5768H52.8935V42.1808ZM57.9644 42.1808V21.0864H57.1726V42.1808H57.9644ZM57.5685 20.6905H52.4089V21.4823H57.5685V20.6905ZM52.0131 21.0932L52.2411 34.434L53.0328 34.4205L52.8048 21.0797L52.0131 21.0932ZM52.9742 34.2197L44.7645 20.8789L44.0901 21.2939L52.2998 34.6347L52.9742 34.2197ZM44.4273 20.6905H39.7808V21.4823H44.4273V20.6905ZM39.3849 21.0864V42.1808H40.1767V21.0864H39.3849ZM39.7808 42.5768H44.9404V41.7849H39.7808V42.5768ZM45.3363 42.1765L45.1937 29.2918L44.402 29.3005L44.5445 42.1852L45.3363 42.1765ZM44.4626 29.5068L52.5583 42.3915L53.2288 41.9702L45.1331 29.0855L44.4626 29.5068ZM52.8935 42.5768H57.5685V41.7849H52.8935V42.5768ZM77.4085 42.1808V42.5768H77.8044V42.1808H77.4085ZM77.4085 25.8184V25.4225H77.0126V25.8184H77.4085ZM81.5418 25.8184V26.2143H81.9378V25.8184H81.5418ZM81.5418 21.0864H81.9378V20.6905H81.5418V21.0864ZM67.859 21.0864V20.6905H67.463V21.0864H67.859ZM67.859 25.8184H67.463V26.2143H67.859V25.8184ZM72.0208 25.8184H72.4168V25.4225H72.0208V25.8184ZM72.0208 42.1808H71.6249V42.5768H72.0208V42.1808ZM77.8044 42.1808V25.8184H77.0126V42.1808H77.8044ZM77.4085 26.2143H81.5418V25.4225H77.4085V26.2143ZM81.9378 25.8184V21.0864H81.1459V25.8184H81.9378ZM81.5418 20.6905H67.859V21.4823H81.5418V20.6905ZM67.463 21.0864V25.8184H68.2549V21.0864H67.463ZM67.859 26.2143H72.0208V25.4225H67.859V26.2143ZM71.6249 25.8184V42.1808H72.4168V25.8184H71.6249ZM72.0208 42.5768H77.4085V41.7849H72.0208V42.5768ZM101.383 42.1808V42.5768H101.779V42.1808H101.383ZM101.383 21.0864H101.779V20.6905H101.383V21.0864ZM95.995 21.0864V20.6905H95.5991V21.0864H95.995ZM95.995 29.0111V29.407H96.391V29.0111H95.995ZM89.0966 29.0111H88.7007V29.407H89.0966V29.0111ZM89.0966 21.0864H89.4925V20.6905H89.0966V21.0864ZM83.709 21.0864V20.6905H83.313V21.0864H83.709ZM83.709 42.1808H83.313V42.5768H83.709V42.1808ZM89.0966 42.1808V42.5768H89.4925V42.1808H89.0966ZM89.0966 33.7431V33.3472H88.7007V33.7431H89.0966ZM95.995 33.7431H96.391V33.3472H95.995V33.7431ZM95.995 42.1808H95.5991V42.5768H95.995V42.1808ZM101.779 42.1808V21.0864H100.987V42.1808H101.779ZM101.383 20.6905H95.995V21.4823H101.383V20.6905ZM95.5991 21.0864V29.0111H96.391V21.0864H95.5991ZM95.995 28.6152H89.0966V29.407H95.995V28.6152ZM89.4925 29.0111V21.0864H88.7007V29.0111H89.4925ZM89.0966 20.6905H83.709V21.4823H89.0966V20.6905ZM83.313 21.0864V42.1808H84.1049V21.0864H83.313ZM83.709 42.5768H89.0966V41.7849H83.709V42.5768ZM89.4925 42.1808V33.7431H88.7007V42.1808H89.4925ZM89.0966 34.139H95.995V33.3472H89.0966V34.139ZM95.5991 33.7431V42.1808H96.391V33.7431H95.5991ZM95.995 42.5768H101.383V41.7849H95.995V42.5768ZM116.916 42.1808V42.5768H117.312V42.1808H116.916ZM116.916 37.4489H117.312V37.0529H116.916V37.4489ZM110.359 37.4489H109.963V37.8448H110.359V37.4489ZM110.359 33.8286V33.4327H109.963V33.8286H110.359ZM116.716 33.8286V34.2245H117.112V33.8286H116.716ZM116.716 29.0966H117.112V28.7007H116.716V29.0966ZM110.359 29.0966H109.963V29.4925H110.359V29.0966ZM110.359 25.8184V25.4225H109.963V25.8184H110.359ZM116.916 25.8184V26.2143H117.312V25.8184H116.916ZM116.916 21.0864H117.312V20.6905H116.916V21.0864ZM105.2 21.0864V20.6905H104.804V21.0864H105.2ZM105.2 42.1808H104.804V42.5768H105.2V42.1808ZM117.312 42.1808V37.4489H116.52V42.1808H117.312ZM116.916 37.0529H110.359V37.8448H116.916V37.0529ZM110.755 37.4489V33.8286H109.963V37.4489H110.755ZM110.359 34.2245H116.716V33.4327H110.359V34.2245ZM117.112 33.8286V29.0966H116.32V33.8286H117.112ZM116.716 28.7007H110.359V29.4925H116.716V28.7007ZM110.755 29.0966V25.8184H109.963V29.0966H110.755ZM110.359 26.2143H116.916V25.4225H110.359V26.2143ZM117.312 25.8184V21.0864H116.52V25.8184H117.312ZM116.916 20.6905H105.2V21.4823H116.916V20.6905ZM104.804 21.0864V42.1808H105.596V21.0864H104.804ZM105.2 42.5768H116.916V41.7849H105.2V42.5768ZM142.654 27.2437V27.6396H143.054L143.05 27.2397L142.654 27.2437ZM139.291 21.571L139.473 21.2196L139.471 21.2187L139.291 21.571ZM133.219 32.8594L133.07 33.2264L133.071 33.2266L133.219 32.8594ZM133.219 35.1969L133.615 35.1904L133.608 34.801H133.219V35.1969ZM127.86 35.1969V34.801H127.464V35.1969H127.86ZM137.01 29.6667L136.853 30.0302L136.854 30.0305L137.01 29.6667ZM137.324 27.2437L136.932 27.3028L136.983 27.6396H137.324V27.2437ZM143.05 27.2397C143.035 25.7788 142.747 24.5782 142.145 23.5825C141.542 22.5858 140.646 21.8283 139.473 21.2196L139.108 21.9224C140.187 22.4825 140.958 23.1503 141.467 23.9922C141.977 24.8351 142.245 25.8865 142.258 27.2477L143.05 27.2397ZM139.471 21.2187C138.303 20.6199 137.016 20.2914 135.556 20.2914V21.0833C136.89 21.0833 138.054 21.3819 139.11 21.9233L139.471 21.2187ZM135.556 20.2914C131.54 20.2914 127.806 23.0197 127.806 26.9016H128.598C128.598 23.6001 131.819 21.0833 135.556 21.0833V20.2914ZM127.806 26.9016C127.806 28.3541 128.225 29.5875 129.115 30.6387C129.995 31.6794 131.314 32.5153 133.07 33.2264L133.367 32.4924C131.674 31.8066 130.485 31.032 129.719 30.1272C128.962 29.2328 128.598 28.1858 128.598 26.9016H127.806ZM133.071 33.2266C134.052 33.6219 135.067 33.9826 135.856 34.4535C136.646 34.9257 137.07 35.4283 137.07 36.0521H137.862C137.862 34.9939 137.117 34.285 136.262 33.7738C135.404 33.2613 134.296 32.8666 133.367 32.4922L133.071 33.2266ZM137.07 36.0521C137.07 36.97 136.339 37.6801 135.442 37.6801V38.4719C136.769 38.4719 137.862 37.4146 137.862 36.0521H137.07ZM135.442 37.6801C134.898 37.6801 134.464 37.4541 134.153 37.0478C133.834 36.6309 133.628 36.0013 133.615 35.1904L132.823 35.2034C132.838 36.1313 133.074 36.9412 133.524 37.5293C133.983 38.1277 134.647 38.4719 135.442 38.4719V37.6801ZM133.219 34.801H127.86V35.5928H133.219V34.801ZM127.464 35.1969V35.653H128.256V35.1969H127.464ZM127.464 35.653C127.464 38.0123 128.254 39.8607 129.683 41.1138C131.105 42.3603 133.111 42.9758 135.471 42.9758V42.184C133.241 42.184 131.441 41.6023 130.205 40.5184C128.976 39.4412 128.256 37.8261 128.256 35.653H127.464ZM135.471 42.9758C137.817 42.9758 139.758 42.3599 141.119 41.1713C142.486 39.9766 143.221 38.2431 143.221 36.1091H142.429C142.429 38.0514 141.767 39.5533 140.598 40.575C139.421 41.6028 137.686 42.184 135.471 42.184V42.9758ZM143.221 36.1091C143.221 34.6616 142.912 33.4483 141.96 32.3412C141.027 31.2555 139.505 30.3072 137.166 29.3029L136.854 30.0305C139.162 31.0217 140.547 31.912 141.36 32.8574C142.154 33.7813 142.429 34.7915 142.429 36.1091H143.221ZM137.167 29.3033C136.001 28.7995 135.185 28.4251 134.655 28.0335C134.152 27.6616 133.957 27.3126 133.957 26.8446H133.165C133.165 27.6309 133.54 28.1941 134.184 28.6703C134.802 29.1267 135.71 29.5363 136.853 30.0302L137.167 29.3033ZM133.957 26.8446C133.957 26.1711 134.583 25.5872 135.414 25.5872V24.7954C134.249 24.7954 133.165 25.6367 133.165 26.8446H133.957ZM135.414 25.5872C135.871 25.5872 136.175 25.7021 136.396 25.9278C136.629 26.1664 136.824 26.5838 136.932 27.3028L137.715 27.1846C137.596 26.3928 137.363 25.784 136.962 25.3741C136.548 24.9513 136.012 24.7954 135.414 24.7954V25.5872ZM137.324 27.6396H142.654V26.8478H137.324V27.6396ZM163.47 42.1808V42.5768H164.233L163.794 41.953L163.47 42.1808ZM156.03 31.6051L155.701 31.3861L155.551 31.6116L155.707 31.8329L156.03 31.6051ZM163.014 21.0864L163.344 21.3054L163.752 20.6905H163.014V21.0864ZM157.37 21.0864V20.6905H157.151L157.035 20.876L157.37 21.0864ZM151.412 30.5789V30.9748H151.631L151.748 30.7894L151.412 30.5789ZM151.355 30.5789H150.96V30.9748H151.355V30.5789ZM151.355 21.0864H151.751V20.6905H151.355V21.0864ZM145.968 21.0864V20.6905H145.572V21.0864H145.968ZM145.968 42.1808H145.572V42.5768H145.968V42.1808ZM151.355 42.1808V42.5768H151.751V42.1808H151.355ZM151.355 33.0589V32.663H150.96V33.0589H151.355ZM151.412 33.0589L151.747 32.8476L151.631 32.663H151.412V33.0589ZM157.171 42.1808L156.836 42.3922L156.952 42.5768H157.171V42.1808ZM163.794 41.953L156.354 31.3773L155.707 31.8329L163.147 42.4087L163.794 41.953ZM156.36 31.8241L163.344 21.3054L162.685 20.8674L155.701 31.3861L156.36 31.8241ZM163.014 20.6905H157.37V21.4823H163.014V20.6905ZM157.035 20.876L151.077 30.3684L151.748 30.7894L157.706 21.2969L157.035 20.876ZM151.412 30.183H151.355V30.9748H151.412V30.183ZM151.751 30.5789V21.0864H150.96V30.5789H151.751ZM151.355 20.6905H145.968V21.4823H151.355V20.6905ZM145.572 21.0864V42.1808H146.364V21.0864H145.572ZM145.968 42.5768H151.355V41.7849H145.968V42.5768ZM151.751 42.1808V33.0589H150.96V42.1808H151.751ZM151.355 33.4548H151.412V32.663H151.355V33.4548ZM151.078 33.2703L156.836 42.3922L157.505 41.9695L151.747 32.8476L151.078 33.2703ZM157.171 42.5768H163.47V41.7849H157.171V42.5768ZM183.34 42.1808V42.5768H183.736V42.1808H183.34ZM183.34 21.0864H183.736V20.6905H183.34V21.0864ZM178.18 21.0864V20.6905H177.778L177.785 21.0932L178.18 21.0864ZM178.409 34.4272L178.071 34.6347L178.829 35.8661L178.804 34.4205L178.409 34.4272ZM170.199 21.0864L170.536 20.8789L170.42 20.6905H170.199V21.0864ZM165.552 21.0864V20.6905H165.156V21.0864H165.552ZM165.552 42.1808H165.156V42.5768H165.552V42.1808ZM170.712 42.1808V42.5768H171.112L171.108 42.1765L170.712 42.1808ZM170.569 29.2961L170.905 29.0855L170.158 27.8972L170.173 29.3005L170.569 29.2961ZM178.665 42.1808L178.33 42.3915L178.446 42.5768H178.665V42.1808ZM183.736 42.1808V21.0864H182.944V42.1808H183.736ZM183.34 20.6905H178.18V21.4823H183.34V20.6905ZM177.785 21.0932L178.013 34.434L178.804 34.4205L178.576 21.0797L177.785 21.0932ZM178.746 34.2197L170.536 20.8789L169.862 21.2939L178.071 34.6347L178.746 34.2197ZM170.199 20.6905H165.552V21.4823H170.199V20.6905ZM165.156 21.0864V42.1808H165.948V21.0864H165.156ZM165.552 42.5768H170.712V41.7849H165.552V42.5768ZM171.108 42.1765L170.965 29.2918L170.173 29.3005L170.316 42.1852L171.108 42.1765ZM170.234 29.5068L178.33 42.3915L179 41.9702L170.905 29.0855L170.234 29.5068ZM178.665 42.5768H183.34V41.7849H178.665V42.5768ZM232.832 42.1808V42.5768H233.136L233.214 42.2822L232.832 42.1808ZM238.419 21.0864L238.801 21.1878L238.933 20.6905H238.419V21.0864ZM232.974 21.0864V20.6905H232.652L232.587 21.0054L232.974 21.0864ZM230.095 34.8548V35.2507H230.417L230.483 34.9358L230.095 34.8548ZM230.038 34.8548L229.651 34.9404L229.72 35.2507H230.038V34.8548ZM226.988 21.0864L227.374 21.0008L227.306 20.6905H226.988V21.0864ZM222.854 21.0864V20.6905H222.538L222.468 20.9989L222.854 21.0864ZM219.747 34.7978V35.1937H220.064L220.133 34.8853L219.747 34.7978ZM219.69 34.7978L219.302 34.8776L219.368 35.1937H219.69V34.7978ZM216.868 21.0864L217.256 21.0066L217.191 20.6905H216.868V21.0864ZM211.395 21.0864V20.6905H210.884L211.012 21.1854L211.395 21.0864ZM216.84 42.1808L216.456 42.2798L216.533 42.5768H216.84V42.1808ZM221.714 42.1808V42.5768H222.029L222.1 42.2702L221.714 42.1808ZM224.878 28.5265V28.1306H224.564L224.493 28.4371L224.878 28.5265ZM224.935 28.5265L225.321 28.4371L225.25 28.1306H224.935V28.5265ZM228.1 42.1808L227.714 42.2702L227.785 42.5768H228.1V42.1808ZM233.214 42.2822L238.801 21.1878L238.036 20.9851L232.449 42.0795L233.214 42.2822ZM238.419 20.6905H232.974V21.4823H238.419V20.6905ZM232.587 21.0054L229.707 34.7738L230.483 34.9358L233.362 21.1675L232.587 21.0054ZM230.095 34.4589H230.038V35.2507H230.095V34.4589ZM230.425 34.7692L227.374 21.0008L226.601 21.1721L229.651 34.9404L230.425 34.7692ZM226.988 20.6905H222.854V21.4823H226.988V20.6905ZM222.468 20.9989L219.361 34.7103L220.133 34.8853L223.241 21.1739L222.468 20.9989ZM219.747 34.4019H219.69V35.1937H219.747V34.4019ZM220.078 34.718L217.256 21.0066L216.48 21.1662L219.302 34.8776L220.078 34.718ZM216.868 20.6905H211.395V21.4823H216.868V20.6905ZM211.012 21.1854L216.456 42.2798L217.223 42.0819L211.778 20.9875L211.012 21.1854ZM216.84 42.5768H221.714V41.7849H216.84V42.5768ZM222.1 42.2702L225.264 28.6159L224.493 28.4371L221.329 42.0915L222.1 42.2702ZM224.878 28.9224H224.935V28.1306H224.878V28.9224ZM224.55 28.6159L227.714 42.2702L228.485 42.0915L225.321 28.4371L224.55 28.6159ZM228.1 42.5768H232.832V41.7849H228.1V42.5768Z" fill="#FFFEFE"/>
<mask id="path-4-inside-1" fill="white">
<path d="M212.944 30.2157H209.9L212.291 28.1507C212.349 28.0999 212.383 28.0296 212.383 27.9592C212.383 27.887 212.349 27.8166 212.291 27.7658L211.359 26.9609C211.299 26.9102 211.219 26.8818 211.136 26.8818C211.052 26.8818 210.972 26.9102 210.913 26.9609L207.147 30.2157H201.267L205.425 26.6249H210.752C210.927 26.6249 211.067 26.5038 211.067 26.3534V25.2144C211.067 25.1441 211.035 25.0737 210.974 25.0229C210.915 24.9702 210.836 24.9428 210.752 24.9428H207.371L209.524 23.0849C209.583 23.0341 209.617 22.9638 209.617 22.8935C209.617 22.8212 209.583 22.7509 209.524 22.7001L208.592 21.8952C208.533 21.8445 208.453 21.816 208.369 21.816C208.286 21.816 208.206 21.8445 208.146 21.8952L205.993 23.757V20.8344C205.993 20.764 205.961 20.6937 205.9 20.6429C205.841 20.5902 205.762 20.5628 205.678 20.5628H204.362C204.188 20.5628 204.048 20.6839 204.048 20.8344V25.4352L199.89 29.0259V23.9484L203.658 20.6957C203.717 20.6444 203.75 20.5753 203.75 20.5032C203.75 20.4312 203.717 20.362 203.658 20.3108L202.726 19.5059C202.668 19.4551 202.588 19.4258 202.505 19.4258C202.421 19.4258 202.34 19.4551 202.283 19.5059L199.89 21.5709V18.9413C199.89 18.7909 199.75 18.6697 199.575 18.6697H198.259C198.085 18.6697 197.944 18.7909 197.944 18.9413V21.5709L195.553 19.5059C195.436 19.4023 195.225 19.4023 195.108 19.5059L194.176 20.3108C194.117 20.362 194.084 20.4312 194.084 20.5032C194.084 20.5753 194.117 20.6444 194.176 20.6957L197.942 23.9484V29.0259L193.787 25.4352V20.8344C193.787 20.6839 193.646 20.5628 193.472 20.5628H192.153C192.07 20.5628 191.991 20.5902 191.932 20.6429C191.873 20.6937 191.839 20.7621 191.839 20.8344V23.7531L189.688 21.8932C189.628 21.8425 189.548 21.8141 189.465 21.8141C189.381 21.8141 189.301 21.8425 189.242 21.8932L188.31 22.6981C188.251 22.7493 188.218 22.8185 188.218 22.8906C188.218 22.9626 188.251 23.0318 188.31 23.083L190.464 24.9409H187.082C186.908 24.9409 186.767 25.062 186.767 25.2124V26.3514C186.767 26.4237 186.799 26.4921 186.86 26.5429C186.919 26.5956 187 26.623 187.082 26.623H192.409L196.567 30.2157H190.688L186.921 26.9609C186.862 26.9102 186.782 26.8818 186.698 26.8818C186.615 26.8818 186.535 26.9102 186.476 26.9609L185.544 27.7658C185.514 27.7911 185.491 27.8211 185.475 27.8541C185.459 27.8871 185.451 27.9225 185.451 27.9583C185.451 27.994 185.459 28.0294 185.475 28.0624C185.491 28.0955 185.514 28.1255 185.544 28.1507L187.935 30.2157H184.89C184.716 30.2157 184.575 30.3388 184.575 30.4872V31.6243C184.575 31.7747 184.716 31.8958 184.89 31.8958H187.935L185.544 33.9588C185.485 34.0116 185.451 34.078 185.451 34.1522C185.451 34.2226 185.482 34.2929 185.544 34.3437L186.476 35.1486C186.537 35.2033 186.618 35.2287 186.697 35.2287C186.776 35.2287 186.858 35.2033 186.919 35.1486L190.688 31.8958H196.567L192.409 35.4866H187.082C186.908 35.4866 186.767 35.6077 186.767 35.7581V36.8951C186.767 36.9674 186.801 37.0378 186.86 37.0885C186.919 37.1393 186.998 37.1667 187.082 37.1667H190.464L188.31 39.0246C188.251 39.0758 188.218 39.145 188.218 39.217C188.218 39.2891 188.251 39.3582 188.31 39.4095L189.242 40.2144C189.271 40.2397 189.306 40.2598 189.344 40.2735C189.382 40.2872 189.423 40.2943 189.464 40.2943C189.505 40.2943 189.546 40.2872 189.584 40.2735C189.622 40.2598 189.656 40.2397 189.685 40.2144L191.839 38.3545V41.2752C191.839 41.3475 191.871 41.4158 191.932 41.4666C191.991 41.5174 192.07 41.5467 192.153 41.5467L193.47 41.5448C193.644 41.5448 193.784 41.4237 193.784 41.2732V36.6763L197.94 33.0856V38.163L194.173 41.4158C194.115 41.467 194.082 41.5362 194.082 41.6083C194.082 41.6803 194.115 41.7495 194.173 41.8007L195.105 42.6056C195.164 42.6564 195.243 42.6837 195.327 42.6837C195.411 42.6837 195.492 42.6564 195.549 42.6056L197.94 40.5406V43.1702C197.94 43.3206 198.08 43.4417 198.254 43.4417H199.571C199.745 43.4417 199.885 43.3187 199.885 43.1702V40.5406L202.276 42.6056C202.335 42.6564 202.414 42.6837 202.498 42.6837C202.582 42.6837 202.661 42.6564 202.72 42.6056L203.652 41.8007C203.71 41.7495 203.743 41.6803 203.743 41.6083C203.743 41.5362 203.71 41.467 203.652 41.4158L199.89 38.163V33.0836L204.048 36.6744V41.2752C204.048 41.4256 204.188 41.5467 204.362 41.5467H205.678C205.762 41.5467 205.844 41.5194 205.9 41.4686C205.959 41.4178 205.993 41.3494 205.993 41.2752V38.3565L208.146 40.2163C208.175 40.2416 208.21 40.2617 208.248 40.2755C208.286 40.2892 208.327 40.2963 208.368 40.2963C208.409 40.2963 208.45 40.2892 208.488 40.2755C208.526 40.2617 208.561 40.2416 208.59 40.2163L209.52 39.4114C209.549 39.3862 209.572 39.3563 209.588 39.3232C209.604 39.2902 209.613 39.2548 209.613 39.219C209.613 39.1832 209.604 39.1477 209.588 39.1147C209.572 39.0817 209.549 39.0517 209.52 39.0265L207.366 37.1686H210.746C210.92 37.1686 211.06 37.0456 211.06 36.8971V35.7601C211.06 35.6097 210.92 35.4885 210.746 35.4885H205.425L201.267 31.8958H207.147L210.913 35.1486C210.974 35.2033 211.055 35.2287 211.135 35.2287C211.214 35.2287 211.295 35.2033 211.356 35.1486L212.288 34.3437C212.318 34.3185 212.341 34.2886 212.357 34.2555C212.373 34.2225 212.381 34.1871 212.381 34.1513C212.381 34.1155 212.373 34.08 212.357 34.047C212.341 34.014 212.318 33.984 212.288 33.9588L209.9 31.8958H212.944C213.119 31.8958 213.259 31.7747 213.259 31.6243V30.4872C213.259 30.3368 213.119 30.2157 212.944 30.2157V30.2157Z"/>
</mask>
<path d="M212.944 30.2157H209.9L212.291 28.1507C212.349 28.0999 212.383 28.0296 212.383 27.9592C212.383 27.887 212.349 27.8166 212.291 27.7658L211.359 26.9609C211.299 26.9102 211.219 26.8818 211.136 26.8818C211.052 26.8818 210.972 26.9102 210.913 26.9609L207.147 30.2157H201.267L205.425 26.6249H210.752C210.927 26.6249 211.067 26.5038 211.067 26.3534V25.2144C211.067 25.1441 211.035 25.0737 210.974 25.0229C210.915 24.9702 210.836 24.9428 210.752 24.9428H207.371L209.524 23.0849C209.583 23.0341 209.617 22.9638 209.617 22.8935C209.617 22.8212 209.583 22.7509 209.524 22.7001L208.592 21.8952C208.533 21.8445 208.453 21.816 208.369 21.816C208.286 21.816 208.206 21.8445 208.146 21.8952L205.993 23.757V20.8344C205.993 20.764 205.961 20.6937 205.9 20.6429C205.841 20.5902 205.762 20.5628 205.678 20.5628H204.362C204.188 20.5628 204.048 20.6839 204.048 20.8344V25.4352L199.89 29.0259V23.9484L203.658 20.6957C203.717 20.6444 203.75 20.5753 203.75 20.5032C203.75 20.4312 203.717 20.362 203.658 20.3108L202.726 19.5059C202.668 19.4551 202.588 19.4258 202.505 19.4258C202.421 19.4258 202.34 19.4551 202.283 19.5059L199.89 21.5709V18.9413C199.89 18.7909 199.75 18.6697 199.575 18.6697H198.259C198.085 18.6697 197.944 18.7909 197.944 18.9413V21.5709L195.553 19.5059C195.436 19.4023 195.225 19.4023 195.108 19.5059L194.176 20.3108C194.117 20.362 194.084 20.4312 194.084 20.5032C194.084 20.5753 194.117 20.6444 194.176 20.6957L197.942 23.9484V29.0259L193.787 25.4352V20.8344C193.787 20.6839 193.646 20.5628 193.472 20.5628H192.153C192.07 20.5628 191.991 20.5902 191.932 20.6429C191.873 20.6937 191.839 20.7621 191.839 20.8344V23.7531L189.688 21.8932C189.628 21.8425 189.548 21.8141 189.465 21.8141C189.381 21.8141 189.301 21.8425 189.242 21.8932L188.31 22.6981C188.251 22.7493 188.218 22.8185 188.218 22.8906C188.218 22.9626 188.251 23.0318 188.31 23.083L190.464 24.9409H187.082C186.908 24.9409 186.767 25.062 186.767 25.2124V26.3514C186.767 26.4237 186.799 26.4921 186.86 26.5429C186.919 26.5956 187 26.623 187.082 26.623H192.409L196.567 30.2157H190.688L186.921 26.9609C186.862 26.9102 186.782 26.8818 186.698 26.8818C186.615 26.8818 186.535 26.9102 186.476 26.9609L185.544 27.7658C185.514 27.7911 185.491 27.8211 185.475 27.8541C185.459 27.8871 185.451 27.9225 185.451 27.9583C185.451 27.994 185.459 28.0294 185.475 28.0624C185.491 28.0955 185.514 28.1255 185.544 28.1507L187.935 30.2157H184.89C184.716 30.2157 184.575 30.3388 184.575 30.4872V31.6243C184.575 31.7747 184.716 31.8958 184.89 31.8958H187.935L185.544 33.9588C185.485 34.0116 185.451 34.078 185.451 34.1522C185.451 34.2226 185.482 34.2929 185.544 34.3437L186.476 35.1486C186.537 35.2033 186.618 35.2287 186.697 35.2287C186.776 35.2287 186.858 35.2033 186.919 35.1486L190.688 31.8958H196.567L192.409 35.4866H187.082C186.908 35.4866 186.767 35.6077 186.767 35.7581V36.8951C186.767 36.9674 186.801 37.0378 186.86 37.0885C186.919 37.1393 186.998 37.1667 187.082 37.1667H190.464L188.31 39.0246C188.251 39.0758 188.218 39.145 188.218 39.217C188.218 39.2891 188.251 39.3582 188.31 39.4095L189.242 40.2144C189.271 40.2397 189.306 40.2598 189.344 40.2735C189.382 40.2872 189.423 40.2943 189.464 40.2943C189.505 40.2943 189.546 40.2872 189.584 40.2735C189.622 40.2598 189.656 40.2397 189.685 40.2144L191.839 38.3545V41.2752C191.839 41.3475 191.871 41.4158 191.932 41.4666C191.991 41.5174 192.07 41.5467 192.153 41.5467L193.47 41.5448C193.644 41.5448 193.784 41.4237 193.784 41.2732V36.6763L197.94 33.0856V38.163L194.173 41.4158C194.115 41.467 194.082 41.5362 194.082 41.6083C194.082 41.6803 194.115 41.7495 194.173 41.8007L195.105 42.6056C195.164 42.6564 195.243 42.6837 195.327 42.6837C195.411 42.6837 195.492 42.6564 195.549 42.6056L197.94 40.5406V43.1702C197.94 43.3206 198.08 43.4417 198.254 43.4417H199.571C199.745 43.4417 199.885 43.3187 199.885 43.1702V40.5406L202.276 42.6056C202.335 42.6564 202.414 42.6837 202.498 42.6837C202.582 42.6837 202.661 42.6564 202.72 42.6056L203.652 41.8007C203.71 41.7495 203.743 41.6803 203.743 41.6083C203.743 41.5362 203.71 41.467 203.652 41.4158L199.89 38.163V33.0836L204.048 36.6744V41.2752C204.048 41.4256 204.188 41.5467 204.362 41.5467H205.678C205.762 41.5467 205.844 41.5194 205.9 41.4686C205.959 41.4178 205.993 41.3494 205.993 41.2752V38.3565L208.146 40.2163C208.175 40.2416 208.21 40.2617 208.248 40.2755C208.286 40.2892 208.327 40.2963 208.368 40.2963C208.409 40.2963 208.45 40.2892 208.488 40.2755C208.526 40.2617 208.561 40.2416 208.59 40.2163L209.52 39.4114C209.549 39.3862 209.572 39.3563 209.588 39.3232C209.604 39.2902 209.613 39.2548 209.613 39.219C209.613 39.1832 209.604 39.1477 209.588 39.1147C209.572 39.0817 209.549 39.0517 209.52 39.0265L207.366 37.1686H210.746C210.92 37.1686 211.06 37.0456 211.06 36.8971V35.7601C211.06 35.6097 210.92 35.4885 210.746 35.4885H205.425L201.267 31.8958H207.147L210.913 35.1486C210.974 35.2033 211.055 35.2287 211.135 35.2287C211.214 35.2287 211.295 35.2033 211.356 35.1486L212.288 34.3437C212.318 34.3185 212.341 34.2886 212.357 34.2555C212.373 34.2225 212.381 34.1871 212.381 34.1513C212.381 34.1155 212.373 34.08 212.357 34.047C212.341 34.014 212.318 33.984 212.288 33.9588L209.9 31.8958H212.944C213.119 31.8958 213.259 31.7747 213.259 31.6243V30.4872C213.259 30.3368 213.119 30.2157 212.944 30.2157V30.2157Z" fill="white" fill-opacity="0.93" stroke="white" stroke-opacity="0.93" stroke-width="0.791833" mask="url(#path-4-inside-1)"/>
<defs>
<clipPath id="clip0">
<rect width="64.9304" height="59.5866" fill="white" transform="translate(0.740906 0.416687)"/>
</clipPath>
</defs>
</svg>
