<svg width="25" height="25" viewBox="0 0 25 25" fill="none" xmlns="http://www.w3.org/2000/svg">
<path d="M7.43308 0.895325C3.56918 0.895325 0.426147 4.04002 0.426147 7.90338V17.9121C0.426147 21.7745 3.57209 24.9163 7.437 24.9163H17.4497C21.3136 24.9163 24.4566 21.7716 24.4566 17.9082V7.89947C24.4566 4.03711 21.3107 0.895325 17.4458 0.895325H7.43308ZM19.4503 4.89881C20.003 4.89881 20.4516 5.3472 20.4516 5.89968C20.4516 6.45217 20.003 6.90056 19.4503 6.90056C18.8976 6.90056 18.449 6.45217 18.449 5.89968C18.449 5.3472 18.8976 4.89881 19.4503 4.89881ZM12.4414 6.90056C15.7546 6.90056 18.449 9.5939 18.449 12.9058C18.449 16.2177 15.7546 18.911 12.4414 18.911C9.12819 18.911 6.43377 16.2177 6.43377 12.9058C6.43377 9.5939 9.12819 6.90056 12.4414 6.90056ZM12.4414 8.9023C11.3792 8.9023 10.3605 9.3241 9.60937 10.0749C8.85827 10.8257 8.43631 11.844 8.43631 12.9058C8.43631 13.9676 8.85827 14.9859 9.60937 15.7367C10.3605 16.4875 11.3792 16.9093 12.4414 16.9093C13.5036 16.9093 14.5223 16.4875 15.2734 15.7367C16.0245 14.9859 16.4465 13.9676 16.4465 12.9058C16.4465 11.844 16.0245 10.8257 15.2734 10.0749C14.5223 9.3241 13.5036 8.9023 12.4414 8.9023V8.9023Z" fill="#FFFEFE"/>
</svg>
