<svg width="28" height="26" viewBox="0 0 28 26" fill="none" xmlns="http://www.w3.org/2000/svg">
<path d="M16.3549 0.894348C15.1197 0.894348 13.676 1.87874 13.4582 6.27476C13.6416 6.2701 13.8226 6.25614 14.0082 6.25614C14.2145 6.25614 14.4276 6.26778 14.6316 6.27476C14.7713 3.63342 15.3901 2.08586 16.3549 2.08586C16.7673 2.08586 17.0011 2.31392 17.4365 2.79332C17.9452 3.35416 18.6098 4.08257 19.9115 4.35717C19.8908 4.20125 19.8748 4.0337 19.8748 3.87312C19.8748 3.62179 19.9 3.38442 19.9481 3.14705C19.1415 2.92364 18.7152 2.45122 18.2982 1.99277C17.833 1.48079 17.299 0.894348 16.3549 0.894348ZM23.3947 1.4901C22.0999 1.4901 21.0481 2.5606 21.0481 3.87312C21.0481 5.18564 22.0999 6.25614 23.3947 6.25614C24.6895 6.25614 25.7413 5.18564 25.7413 3.87312C25.7413 2.5606 24.6895 1.4901 23.3947 1.4901ZM14.0082 7.44765C6.89047 7.44765 1.10183 11.1292 1.10183 16.384C1.10183 21.6387 6.89047 25.916 14.0082 25.916C21.126 25.916 26.9146 21.6387 26.9146 16.384C26.9146 11.1292 21.126 7.44765 14.0082 7.44765ZM3.74178 8.00617C2.88471 8.00617 2.07119 8.36223 1.45016 8.99289C0.439555 10.0192 0.231018 11.4946 0.808506 12.7164C1.69536 10.9733 3.22158 9.48625 5.19008 8.37852C4.74322 8.14813 4.24823 8.00617 3.74178 8.00617ZM24.2747 8.00617C23.7682 8.00617 23.2733 8.14813 22.8264 8.37852C24.7949 9.48625 26.3211 10.9733 27.208 12.7164C27.7855 11.4946 27.5769 10.0192 26.5663 8.99289C25.9453 8.36223 25.1318 8.00617 24.2747 8.00617ZM9.315 12.8094C10.2866 12.8094 11.075 13.61 11.075 14.5967C11.075 15.5834 10.2866 16.384 9.315 16.384C8.34335 16.384 7.55504 15.5834 7.55504 14.5967C7.55504 13.61 8.34335 12.8094 9.315 12.8094ZM18.7015 12.8094C19.6731 12.8094 20.4614 13.61 20.4614 14.5967C20.4614 15.5834 19.6731 16.384 18.7015 16.384C17.7298 16.384 16.9415 15.5834 16.9415 14.5967C16.9415 13.61 17.7298 12.8094 18.7015 12.8094ZM8.76501 19.3627C8.91167 19.3883 9.05605 19.4721 9.15 19.6048C9.21188 19.6932 10.5869 21.5596 14.0082 21.5596C17.4755 21.5596 18.8527 19.642 18.8665 19.6234C19.0521 19.3558 19.4256 19.2836 19.6915 19.4744C19.955 19.6629 20.0054 20.0237 19.8198 20.2936C19.751 20.3937 18.0782 22.7511 14.0082 22.7511C9.93603 22.7511 8.26544 20.3937 8.19669 20.2936C8.01107 20.0237 8.05919 19.6629 8.32502 19.4744C8.45793 19.379 8.61835 19.3371 8.76501 19.3627Z" fill="#FFFEFE"/>
</svg>
