<svg width="25" height="21" viewBox="0 0 25 21" fill="none" xmlns="http://www.w3.org/2000/svg">
<path d="M24.3274 3.20104C23.4278 3.59982 22.5243 3.90086 21.523 4.00251C22.5243 3.40043 23.3261 2.39956 23.725 1.29704C22.7238 1.89912 21.7225 2.29791 20.6234 2.50121C19.6222 1.50034 18.3197 0.898254 16.9195 0.898254C14.213 0.898254 12.011 3.09939 12.011 5.80095C12.011 6.20364 12.011 6.60243 12.1126 6.90347C8.00588 6.70408 4.40365 4.80008 1.99825 1.79747C1.49762 2.50121 1.29815 3.40043 1.29815 4.29965C1.29815 6.00425 2.19772 7.50556 3.50016 8.40477C2.69836 8.30312 1.90047 8.10373 1.29815 7.80269C1.29815 7.80269 1.29815 7.80269 1.29815 7.90434C1.29815 10.3049 2.99952 12.3066 5.20154 12.7093C4.80259 12.807 4.40365 12.9087 3.90301 12.9087C3.60185 12.9087 3.30069 12.9087 2.99952 12.807C3.60185 14.8088 5.40492 16.2123 7.60693 16.2123C5.90555 17.5143 3.80132 18.3118 1.49762 18.3118C1.09867 18.3118 0.695819 18.3118 0.296875 18.2141C2.49889 19.6137 5.10375 20.4152 7.8064 20.4152C16.9195 20.4152 21.8242 12.9087 21.8242 6.40304C21.8242 6.20364 21.8242 6.00425 21.8242 5.80095C22.8255 5.10112 23.6273 4.2019 24.3274 3.20104Z" fill="#FFFEFE"/>
</svg>
