<svg width="50" height="41" viewBox="0 0 50 41" fill="none" xmlns="http://www.w3.org/2000/svg">
<path d="M49.9152 5.63836C48.0471 6.45408 46.1708 7.06987 44.0916 7.2778C46.1708 6.04622 47.8359 3.99892 48.6644 1.7437C46.5851 2.97527 44.5058 3.791 42.2234 4.20685C40.1442 2.15956 37.4395 0.927979 34.5317 0.927979C28.9111 0.927979 24.3383 5.43043 24.3383 10.9565C24.3383 11.7802 24.3383 12.596 24.5495 13.2118C16.0212 12.8039 8.54065 8.90924 3.54549 2.76735C2.50585 4.20685 2.09161 6.04622 2.09161 7.88559C2.09161 11.3724 3.95972 14.4433 6.66442 16.2827C4.99937 16.0748 3.34244 15.6669 2.09161 15.0511C2.09161 15.0511 2.09161 15.0511 2.09161 15.2591C2.09161 20.1694 5.62478 24.264 10.1976 25.0877C9.36911 25.2876 8.54065 25.4955 7.50101 25.4955C6.87559 25.4955 6.25019 25.4955 5.62478 25.2876C6.87559 29.3822 10.6199 32.2532 15.1927 32.2532C11.6596 34.9163 7.28983 36.5477 2.50585 36.5477C1.67738 36.5477 0.840795 36.5477 0.0123291 36.3478C4.58513 39.2108 9.99452 40.8503 15.607 40.8503C34.5317 40.8503 44.717 25.4955 44.717 12.1881C44.717 11.7802 44.717 11.3724 44.717 10.9565C46.7963 9.52502 48.4613 7.68565 49.9152 5.63836Z" fill="#FFFEFE"/>
</svg>
